<?xml version="1.0" encoding="iso-8859-1"?>
<!-- Generator: Adobe Illustrator 25.2.1, SVG Export Plug-In . SVG Version: 6.00 Build 0)  -->
<svg version="1.1" id="&#x30EC;&#x30A4;&#x30E4;&#x30FC;_1"
	 xmlns="http://www.w3.org/2000/svg" xmlns:xlink="http://www.w3.org/1999/xlink" x="0px" y="0px" viewBox="0 0 126 28"
	 style="enable-background:new 0 0 126 28;" xml:space="preserve">
<g>
	<path style="fill:#202226;" d="M44.506,21.35c-0.223,0.156-0.492,0.246-0.76,0.246c-0.402,0-0.783-0.178-1.051-0.537l-2.929-4.001
		c-0.447,0.156-0.961,0.291-1.498,0.359V20.3c0,0.715-0.604,1.297-1.318,1.297c-0.715,0-1.297-0.582-1.297-1.297V7.199
		c0-0.715,0.58-1.297,1.297-1.297c0.715,0,1.318,0.582,1.318,1.297v7.6c0.447-0.09,0.85-0.246,1.207-0.447
		c0.068-0.023,0.113-0.045,0.178-0.09c1.162-0.693,1.968-1.99,2.548-4.046c0.178-0.693,0.894-1.095,1.587-0.894
		s1.095,0.916,0.916,1.609c-0.291,0.984-0.916,3.22-2.683,4.806l2.771,3.8C45.221,20.099,45.088,20.925,44.506,21.35z"/>
	<path style="fill:#202226;" d="M68.432,21.682c-3.455,0-6.251-2.818-6.251-6.251c0-3.455,2.795-6.273,6.251-6.273
		c3.455,0,6.273,2.818,6.273,6.273C74.705,18.864,71.887,21.682,68.432,21.682z M68.432,11.811c-1.992,0-3.597,1.63-3.597,3.62
		c0,1.969,1.607,3.597,3.597,3.597c1.992,0,3.597-1.63,3.597-3.597C72.029,13.439,70.424,11.811,68.432,11.811z"/>
	<path style="fill:#202226;" d="M120.429,7.221c0-0.76,0.625-1.318,1.386-1.318c0.783,0,1.386,0.559,1.408,1.318
		c-0.022,0.76-0.625,1.318-1.408,1.318C121.054,8.539,120.429,7.982,120.429,7.221z M123.135,10.833V20.3
		c0,0.715-0.582,1.297-1.32,1.297c-0.715,0-1.297-0.582-1.297-1.297v-9.467c0-0.715,0.582-1.297,1.297-1.297
		C122.553,9.535,123.135,10.117,123.135,10.833z"/>
	<path style="fill:#202226;" d="M111.494,21.576c-0.506,0-0.965-0.291-1.181-0.748l-4.586-9.684
		c-0.31-0.653-0.031-1.432,0.622-1.741c0.651-0.31,1.432-0.031,1.741,0.622l3.405,7.19l3.405-7.19
		c0.308-0.653,1.088-0.932,1.741-0.622c0.653,0.308,0.93,1.088,0.622,1.741l-4.586,9.684
		C112.46,21.285,111.999,21.576,111.494,21.576z"/>
	<path style="fill:#202226;" d="M59.661,19.742c-0.488-2-0.572-3.132-0.606-4.115v-5.052c0-0.715-0.58-1.297-1.297-1.297
		c-0.625,0-1.14,0.424-1.275,1.006c-0.939-0.648-2.078-1.006-3.286-1.006c-1.654,0-3.152,0.648-4.247,1.855
		c-1.029,1.117-1.609,2.66-1.609,4.292c0,1.654,0.58,3.197,1.609,4.314c1.095,1.207,2.593,1.855,4.247,1.855
		c1.207,0,2.347-0.359,3.286-1.006c0.074-0.055,0.151-0.114,0.227-0.177c0.003,0.012,0.005,0.026,0.009,0.036
		c0.215,0.804,1.032,1.296,1.848,1.103C59.382,21.362,59.876,20.546,59.661,19.742z M53.197,19.003c-1.9,0-3.265-1.498-3.265-3.577
		c0-2.056,1.363-3.554,3.265-3.554c1.878,0,3.263,1.498,3.263,3.554C56.46,17.504,55.075,19.003,53.197,19.003z"/>
	<path style="fill:#202226;" d="M103.017,19.742c-0.488-2-0.572-3.132-0.606-4.115v-5.052c0-0.715-0.58-1.297-1.297-1.297
		c-0.625,0-1.14,0.424-1.275,1.006C98.9,9.636,97.76,9.277,96.553,9.277c-1.654,0-3.152,0.648-4.247,1.855
		c-1.029,1.117-1.609,2.66-1.609,4.292c0,1.654,0.58,3.197,1.609,4.314c1.095,1.207,2.593,1.855,4.247,1.855
		c1.207,0,2.347-0.359,3.286-1.006c0.074-0.055,0.151-0.114,0.227-0.177c0.003,0.012,0.005,0.026,0.009,0.036
		c0.215,0.804,1.032,1.296,1.848,1.103C102.74,21.362,103.234,20.546,103.017,19.742z M96.555,19.003
		c-1.9,0-3.265-1.498-3.265-3.577c0-2.056,1.363-3.554,3.265-3.554c1.878,0,3.263,1.498,3.263,3.554
		C99.818,17.504,98.432,19.003,96.555,19.003z"/>
	<path style="fill:#202226;" d="M82.725,9.345c-1.029,0-1.969,0.307-2.75,0.837c-0.317-0.615-1.022-0.961-1.727-0.795
		c-0.816,0.192-1.309,1.008-1.093,1.812c0.374,1.531,0.565,2.673,0.565,3.488c0,0.473,0,5.678,0,5.678
		c0,0.715,0.582,1.297,1.318,1.297c0.715,0,1.297-0.582,1.297-1.297v-5.676c0-1.318,0.738-2.749,2.392-2.749
		s2.392,1.431,2.392,2.749v5.678c0,0.715,0.58,1.297,1.297,1.297c0.738,0,1.318-0.582,1.318-1.297v-5.678
		C87.734,11.648,85.565,9.345,82.725,9.345z"/>
	<g>
		<g>
			<path style="fill:#FFDA1B;" d="M23.805,11.415H18.06h-4.33c-2.839-0.054-4.715,2.672-3.992,5.174
				c0.114,0.395,0.293,0.785,0.543,1.157l5.47,8.458c1.703,2.53,5.482,2.352,6.94-0.326l4.605-8.459
				C28.755,14.742,26.853,11.472,23.805,11.415z M24.16,18.002c-0.729,1.337-2.404,1.831-3.741,1.104
				c-1.337-0.729-1.831-2.405-1.103-3.742c0.729-1.337,2.404-1.831,3.741-1.104C24.395,14.989,24.889,16.664,24.16,18.002z"/>
			<path style="fill:#447FE0;" d="M18.06,11.415c-0.114-0.396-0.293-0.787-0.544-1.16l-5.47-8.458
				c-1.703-2.529-5.482-2.352-6.94,0.326L0.5,10.582c-1.458,2.678,0.443,5.948,3.492,6.007h5.746h4.33
				C16.905,16.641,18.781,13.917,18.06,11.415z M8.48,12.638c-0.729,1.337-2.404,1.831-3.741,1.104
				C3.402,13.013,2.908,11.337,3.636,10C4.365,8.663,6.04,8.169,7.377,8.896C8.715,9.625,9.209,11.3,8.48,12.638z"/>
		</g>
		<path style="fill:#2F7417;" d="M18.06,11.415h-4.33c-2.839-0.054-4.715,2.672-3.992,5.174h4.33
			C16.905,16.641,18.781,13.917,18.06,11.415z"/>
	</g>
</g>
</svg>
